<svg version="1.1" id="Layer_1" xmlns="http://www.w3.org/2000/svg" xmlns:xlink="http://www.w3.org/1999/xlink" x="0px" y="0px"
	 width="100%" viewBox="0 0 500 500" enable-background="new 0 0 500 500" xml:space="preserve">
<path fill="#FFFFFF" opacity="1.000000" stroke="none" 
	d="
M315.000000,501.000000 
	C210.000031,501.000000 105.500053,501.000000 1.000056,501.000000 
	C1.000037,334.333405 1.000037,167.666794 1.000019,1.000146 
	C167.666565,1.000097 334.333130,1.000097 500.999756,1.000049 
	C500.999847,167.666519 500.999847,334.333038 500.999939,500.999786 
	C439.166656,501.000000 377.333344,501.000000 315.000000,501.000000 
M278.657013,90.798927 
	C243.678345,75.313530 211.382599,80.758530 181.796783,103.929909 
	C160.246185,120.808159 145.085052,143.027313 133.445908,167.376938 
	C111.390915,213.516998 93.394066,261.240692 81.359543,311.046448 
	C77.872871,325.476227 75.397812,340.110565 77.963631,355.067230 
	C79.476524,363.886169 83.549255,371.444611 92.547577,373.503632 
	C99.634827,375.125336 107.505066,375.435028 114.659119,374.197632 
	C127.876511,371.911469 133.833588,361.301117 137.890594,349.806793 
	C144.138824,332.104309 149.978943,314.257507 155.960876,296.461395 
	C159.382065,286.283508 166.672226,281.112488 177.126404,280.224609 
	C187.246796,279.365082 197.378265,278.584412 207.518997,278.025665 
	C235.185730,276.501282 262.788239,277.639069 290.375793,280.015045 
	C304.197479,281.205475 314.631653,286.582153 319.076935,300.605682 
	C319.678558,302.503571 320.556671,304.315247 321.133087,306.219421 
	C325.996826,322.286621 330.679413,338.410065 335.690735,354.430817 
	C342.199554,375.239105 357.988159,384.198547 378.997253,379.005096 
	C388.043121,376.768982 395.299255,371.571533 396.102509,361.796173 
	C396.926178,351.771820 396.877991,341.471313 395.556000,331.511414 
	C390.528015,293.631561 380.481140,256.905426 368.210358,220.792633 
	C358.195679,191.319443 347.658081,162.037964 328.913818,136.613373 
	C315.348846,118.213959 299.984650,101.779007 278.657013,90.798927 
z"/>
<path fill="#FF3232" opacity="1.000000" stroke="none" 
	d="
M279.007141,90.932999 
	C299.984650,101.779007 315.348846,118.213959 328.913818,136.613373 
	C347.658081,162.037964 358.195679,191.319443 368.210358,220.792633 
	C380.481140,256.905426 390.528015,293.631561 395.556000,331.511414 
	C396.877991,341.471313 396.926178,351.771820 396.102509,361.796173 
	C395.299255,371.571533 388.043121,376.768982 378.997253,379.005096 
	C357.988159,384.198547 342.199554,375.239105 335.690735,354.430817 
	C330.679413,338.410065 325.996826,322.286621 321.133087,306.219421 
	C320.556671,304.315247 319.678558,302.503571 319.076935,300.605682 
	C314.631653,286.582153 304.197479,281.205475 290.375793,280.015045 
	C262.788239,277.639069 235.185730,276.501282 207.518997,278.025665 
	C197.378265,278.584412 187.246796,279.365082 177.126404,280.224609 
	C166.672226,281.112488 159.382065,286.283508 155.960876,296.461395 
	C149.978943,314.257507 144.138824,332.104309 137.890594,349.806793 
	C133.833588,361.301117 127.876511,371.911469 114.659119,374.197632 
	C107.505066,375.435028 99.634827,375.125336 92.547577,373.503632 
	C83.549255,371.444611 79.476524,363.886169 77.963631,355.067230 
	C75.397812,340.110565 77.872871,325.476227 81.359543,311.046448 
	C93.394066,261.240692 111.390915,213.516998 133.445908,167.376938 
	C145.085052,143.027313 160.246185,120.808159 181.796783,103.929909 
	C211.382599,80.758530 243.678345,75.313530 279.007141,90.932999 
M272.186310,140.323822 
	C271.142090,139.248535 270.117554,138.153290 269.050690,137.100983 
	C256.238190,124.463448 242.640366,121.990257 226.883057,130.585709 
	C221.035995,133.775223 215.697983,138.480209 211.204330,143.464600 
	C194.440506,162.059174 183.882156,184.242905 176.031265,207.746582 
	C173.897675,214.134064 172.827316,220.951431 171.952209,227.660614 
	C171.267487,232.910202 174.126907,236.790482 179.289902,238.071594 
	C183.600510,239.141174 188.112778,239.895844 192.540024,239.917679 
	C223.684174,240.071381 254.829407,240.007553 285.974304,239.986298 
	C289.136719,239.984146 292.311249,239.946854 295.458893,239.677246 
	C303.135651,239.019699 306.360077,236.314682 306.066620,228.717331 
	C305.741943,220.313354 304.839386,211.763962 302.799866,203.625931 
	C297.057007,180.711060 288.522705,158.977264 272.186310,140.323822 
z"/>
<path fill="#FFFEFE" opacity="1.000000" stroke="none" 
	d="
M272.435577,140.577332 
	C288.522705,158.977264 297.057007,180.711060 302.799866,203.625931 
	C304.839386,211.763962 305.741943,220.313354 306.066620,228.717331 
	C306.360077,236.314682 303.135651,239.019699 295.458893,239.677246 
	C292.311249,239.946854 289.136719,239.984146 285.974304,239.986298 
	C254.829407,240.007553 223.684174,240.071381 192.540024,239.917679 
	C188.112778,239.895844 183.600510,239.141174 179.289902,238.071594 
	C174.126907,236.790482 171.267487,232.910202 171.952209,227.660614 
	C172.827316,220.951431 173.897675,214.134064 176.031265,207.746582 
	C183.882156,184.242905 194.440506,162.059174 211.204330,143.464600 
	C215.697983,138.480209 221.035995,133.775223 226.883057,130.585709 
	C242.640366,121.990257 256.238190,124.463448 269.050690,137.100983 
	C270.117554,138.153290 271.142090,139.248535 272.435577,140.577332 
z"/>
</svg>